<svg xmlns="http://www.w3.org/2000/svg" width="390" height="844" viewBox="0 0 390 844">
  <defs>
    <linearGradient id="phonebg" x1="0%" y1="0%" x2="0%" y2="100%">
      <stop offset="0%" style="stop-color:#0c0c0c"/>
      <stop offset="100%" style="stop-color:#080808"/>
    </linearGradient>
    <clipPath id="screen">
      <rect x="0" y="0" width="390" height="844" rx="0"/>
    </clipPath>
  </defs>

  <rect width="390" height="844" fill="url(#phonebg)" clip-path="url(#screen)"/>

  <!-- Status bar -->
  <text x="24" y="28" font-family="'Courier New', monospace" font-size="11" fill="#ffffff" opacity="0.4">9:41</text>
  <text x="330" y="28" font-family="'Courier New', monospace" font-size="11" fill="#ffffff" opacity="0.4">●●● WiFi 🔋</text>

  <!-- Header -->
  <line x1="0" y1="44" x2="390" y2="44" stroke="#ffffff" stroke-width="0.5" opacity="0.06"/>
  <text x="24" y="84" font-family="Georgia, 'Times New Roman', serif" font-size="36" font-style="italic" fill="#f0ebe3" opacity="0.95">folio<tspan fill="#d4a853">.</tspan></text>

  <!-- Auth chip -->
  <rect x="314" y="66" width="54" height="22" rx="11" fill="none" stroke="#d4a853" stroke-width="1" opacity="0.5"/>
  <circle cx="325" cy="77" r="3.5" fill="#d4a853" opacity="0.6"/>
  <text x="332" y="81" font-family="'Courier New', monospace" font-size="9" fill="#d4a853" opacity="0.8">guest</text>

  <!-- List tabs -->
  <line x1="0" y1="100" x2="390" y2="100" stroke="#ffffff" stroke-width="0.5" opacity="0.06"/>
  <rect x="24" y="108" width="80" height="28" rx="6" fill="#1a1a1a"/>
  <text x="36" y="127" font-family="'Courier New', monospace" font-size="10" fill="#d4a853" letter-spacing="1">TODAY</text>
  <text x="120" y="127" font-family="'Courier New', monospace" font-size="10" fill="#ffffff" opacity="0.25" letter-spacing="1">PERSONAL</text>
  <text x="228" y="127" font-family="'Courier New', monospace" font-size="10" fill="#ffffff" opacity="0.25" letter-spacing="1">WORK</text>
  <text x="300" y="127" font-family="'Courier New', monospace" font-size="10" fill="#ffffff" opacity="0.25" letter-spacing="1">ERRANDS</text>

  <!-- Filter bar -->
  <line x1="0" y1="148" x2="390" y2="148" stroke="#ffffff" stroke-width="0.5" opacity="0.06"/>
  <text x="24" y="166" font-family="'Courier New', monospace" font-size="9" fill="#d4a853" letter-spacing="2">ALL</text>
  <text x="62" y="166" font-family="'Courier New', monospace" font-size="9" fill="#ffffff" opacity="0.3" letter-spacing="2">TODAY</text>
  <text x="118" y="166" font-family="'Courier New', monospace" font-size="9" fill="#ffffff" opacity="0.3" letter-spacing="2">UPCOMING</text>
  <text x="218" y="166" font-family="'Courier New', monospace" font-size="9" fill="#ffffff" opacity="0.3" letter-spacing="2">OVERDUE</text>
  <line x1="0" y1="178" x2="390" y2="178" stroke="#ffffff" stroke-width="0.5" opacity="0.06"/>

  <!-- TODAY section header -->
  <text x="24" y="206" font-family="'Courier New', monospace" font-size="9" fill="#ffffff" opacity="0.2" letter-spacing="3">TODAY · MAR 1</text>

  <!-- Task 1 — starred, amber ring -->
  <rect x="16" y="216" width="358" height="68" rx="8" fill="#141414"/>
  <rect x="16" y="216" width="3" height="68" rx="1.5" fill="#d4a853" opacity="0.8"/>
  <circle cx="52" cy="250" r="10" fill="none" stroke="#d4a853" stroke-width="1.5"/>
  <text x="74" y="244" font-family="Georgia, serif" font-size="15" fill="#f0ebe3" opacity="0.95">Call dentist</text>
  <text x="74" y="262" font-family="'Courier New', monospace" font-size="10" fill="#d4a853" opacity="0.7">Today · 9:00 AM</text>
  <rect x="310" y="236" width="52" height="18" rx="9" fill="#1e1a14"/>
  <text x="318" y="249" font-family="'Courier New', monospace" font-size="8" fill="#d4a853" opacity="0.8">remind</text>
  <text x="330" y="270" font-family="'Courier New', monospace" font-size="14" fill="#d4a853" opacity="0.5">★</text>

  <!-- Task 2 -->
  <rect x="16" y="292" width="358" height="68" rx="8" fill="#111111"/>
  <circle cx="52" cy="326" r="10" fill="none" stroke="#ffffff" stroke-width="1" opacity="0.2"/>
  <text x="74" y="320" font-family="Georgia, serif" font-size="15" fill="#f0ebe3" opacity="0.8">Review pull request #42</text>
  <text x="74" y="338" font-family="'Courier New', monospace" font-size="10" fill="#888" opacity="0.7">Today · 2:00 PM</text>
  <text x="330" y="330" font-family="'Courier New', monospace" font-size="14" fill="#ffffff" opacity="0.15">☆</text>

  <!-- Task 3 -->
  <rect x="16" y="368" width="358" height="68" rx="8" fill="#111111"/>
  <circle cx="52" cy="402" r="10" fill="none" stroke="#ffffff" stroke-width="1" opacity="0.2"/>
  <text x="74" y="396" font-family="Georgia, serif" font-size="15" fill="#f0ebe3" opacity="0.8">Write weekly report</text>
  <text x="74" y="414" font-family="'Courier New', monospace" font-size="10" fill="#888" opacity="0.7">Today · 5:00 PM</text>
  <text x="330" y="406" font-family="'Courier New', monospace" font-size="14" fill="#ffffff" opacity="0.15">☆</text>

  <!-- UPCOMING section header -->
  <text x="24" y="460" font-family="'Courier New', monospace" font-size="9" fill="#ffffff" opacity="0.2" letter-spacing="3">UPCOMING</text>

  <!-- Task 4 -->
  <rect x="16" y="470" width="358" height="60" rx="8" fill="#0f0f0f"/>
  <circle cx="52" cy="500" r="10" fill="none" stroke="#ffffff" stroke-width="1" opacity="0.15"/>
  <text x="74" y="495" font-family="Georgia, serif" font-size="15" fill="#f0ebe3" opacity="0.6">Pick up groceries</text>
  <text x="74" y="512" font-family="'Courier New', monospace" font-size="10" fill="#666" opacity="0.7">Saturday</text>

  <!-- Task 5 -->
  <rect x="16" y="538" width="358" height="60" rx="8" fill="#0f0f0f"/>
  <circle cx="52" cy="568" r="10" fill="none" stroke="#ffffff" stroke-width="1" opacity="0.15"/>
  <text x="74" y="563" font-family="Georgia, serif" font-size="15" fill="#f0ebe3" opacity="0.6">Dentist follow-up</text>
  <text x="74" y="580" font-family="'Courier New', monospace" font-size="10" fill="#666" opacity="0.7">Next week · Mon</text>

  <!-- Task 6 done -->
  <rect x="16" y="606" width="358" height="52" rx="8" fill="#0a0a0a" opacity="0.6"/>
  <circle cx="52" cy="632" r="10" fill="#1e1e1e"/>
  <line x1="44" y1="632" x2="60" y2="632" stroke="#d4a853" stroke-width="1.5" opacity="0.5"/>
  <text x="74" y="627" font-family="Georgia, serif" font-size="14" fill="#ffffff" opacity="0.2">Buy standing desk</text>
  <text x="74" y="643" font-family="'Courier New', monospace" font-size="9" fill="#ffffff" opacity="0.1">completed</text>

  <!-- FAB -->
  <circle cx="195" cy="780" r="28" fill="#d4a853"/>
  <circle cx="195" cy="780" r="28" fill="#d4a853" opacity="0.2"/>
  <text x="183" y="789" font-family="Georgia, serif" font-size="28" fill="#0a0a0a" font-weight="bold">+</text>

  <!-- Bottom nav hint -->
  <line x1="0" y1="740" x2="390" y2="740" stroke="#ffffff" stroke-width="0.5" opacity="0.06"/>
  <text x="152" y="760" font-family="'Courier New', monospace" font-size="8" fill="#ffffff" opacity="0.15" letter-spacing="3">FOLIO · PWA</text>

  <!-- Home indicator -->
  <rect x="155" y="820" width="80" height="4" rx="2" fill="#ffffff" opacity="0.15"/>
</svg>
